<mxfile host="app.diagrams.net" modified="2024-05-16T13:16:18.678Z" agent="Mozilla/5.0 (Windows NT 10.0; Win64; x64) AppleWebKit/537.36 (KHTML, like Gecko) Chrome/124.0.0.0 Safari/537.36" version="24.4.0" etag="hbbHf91hwHor-iHDOeUN" type="github">
  <diagram name="Page-1" id="CjbsTD7P4P5L44YS75sP">
    <mxGraphModel>
      <root>
        <mxCell id="0" />
        <mxCell id="1" parent="0" />
      </root>
    </mxGraphModel>
  </diagram>
</mxfile>
